<svg xmlns="http://www.w3.org/2000/svg" width="500" height="500" viewBox="0 0 500 500" version="1.1"><path d="M 135.977 221.023 C 134.346 222.654, 134.165 223.439, 135.042 225.079 C 136.481 227.767, 138.381 228.402, 140.922 227.042 C 143.575 225.622, 143.661 221.424, 141.066 220.035 C 138.483 218.653, 138.314 218.686, 135.977 221.023 M 195.977 221.023 C 194.346 222.654, 194.165 223.439, 195.042 225.079 C 196.481 227.767, 198.381 228.402, 200.922 227.042 C 203.575 225.622, 203.661 221.424, 201.066 220.035 C 198.483 218.653, 198.314 218.686, 195.977 221.023 M 214 230 C 214 234.667, 213.833 235, 211.500 235 C 209.250 235, 209 235.400, 209 239 C 209 242.600, 209.250 243, 211.500 243 L 214 243 214 254.351 C 214 267.638, 215.045 271.455, 219.282 273.646 C 222.291 275.202, 230.864 275.820, 232.804 274.621 C 233.452 274.221, 233.453 272.681, 232.805 270.131 C 231.987 266.908, 231.392 266.250, 229.296 266.250 C 227.908 266.250, 226.381 265.631, 225.902 264.875 C 225.423 264.119, 225.024 258.887, 225.015 253.250 L 225 243 229 243 C 232.990 243, 233 242.990, 233 239.060 C 233 235.230, 232.896 235.112, 229.250 234.810 C 225.536 234.503, 225.497 234.454, 225.195 229.750 L 224.890 225 219.445 225 L 214 225 214 230 M 166 234.704 C 165.175 235.004, 163.262 236.403, 161.750 237.812 L 159 240.374 159 237.687 C 159 235.368, 158.589 235, 156 235 L 153 235 153 255 L 153 275 156 275 L 159 275 159 260.423 L 159 245.846 161.979 242.867 C 164.568 240.279, 165.569 239.929, 169.628 240.194 C 173.397 240.441, 174.704 241.045, 176.399 243.321 C 178.260 245.820, 178.539 247.790, 178.844 260.571 L 179.188 275 182.182 275 L 185.176 275 184.838 259.250 C 184.460 241.614, 183.448 238.390, 177.393 235.516 C 174.240 234.020, 168.921 233.641, 166 234.704 M 301.338 235.877 C 299.599 236.970, 297.700 238.682, 297.118 239.682 C 296.217 241.231, 296.056 241.020, 296.030 238.250 L 296 235 290.500 235 L 285 235 285 255 L 285 275 290.404 275 L 295.808 275 296.154 260.911 C 296.483 247.515, 296.616 246.727, 298.861 244.911 C 301.724 242.593, 303.839 242.498, 306.777 244.557 C 308.900 246.043, 309 246.765, 309 260.557 L 309 275 314.500 275 L 320 275 320 261.455 C 320 248.268, 320.068 247.841, 322.550 245.359 C 324.528 243.381, 325.707 242.955, 327.800 243.459 C 332.506 244.593, 333 246.277, 333 261.191 L 333 275 338.500 275 L 344 275 344 259.148 C 344 244.303, 343.855 243.081, 341.720 239.912 C 340.466 238.052, 338.328 235.967, 336.970 235.279 C 331.747 232.636, 323.880 234.477, 320.642 239.101 C 319.166 241.208, 319.155 241.205, 316.299 238.008 C 312.554 233.818, 306.083 232.896, 301.338 235.877 M 136 255 L 136 275 139 275 L 142 275 142 255 L 142 235 139 235 L 136 235 136 255 M 196 255 L 196 275 199 275 L 202 275 202 255 L 202 235 199 235 L 196 235 196 255 M 240 250.050 C 240 266.369, 240.647 269.004, 245.615 272.912 C 247.572 274.451, 249.707 275, 253.735 275 C 258.617 275, 259.563 274.637, 262.600 271.600 L 266 268.200 266 271.600 L 266 275 271.500 275 L 277 275 277 255 L 277 235 271.577 235 L 266.155 235 265.827 248.591 C 265.517 261.473, 265.377 262.281, 263.139 264.091 C 259.978 266.647, 255.567 266.525, 253.039 263.811 C 251.199 261.836, 251 260.325, 251 248.311 L 251 235 245.500 235 L 240 235 240 250.050 M 355.168 264.595 C 351.861 266.912, 352.455 272.853, 356.204 274.948 C 358.699 276.342, 359.125 276.298, 361.704 274.381 C 365.234 271.757, 365.808 267.808, 363.061 265.061 C 360.587 262.587, 358.232 262.449, 355.168 264.595" stroke="none" fill="#161616" fill-rule="evenodd"/><path d="M 0 250.002 L 0 500.004 250.250 499.752 L 500.500 499.500 500.752 249.750 L 501.004 0 250.502 0 L 0 0 0 250.002 M 0.492 250.500 C 0.492 388, 0.608 444.101, 0.750 375.170 C 0.892 306.238, 0.892 193.738, 0.750 125.170 C 0.608 56.601, 0.492 113, 0.492 250.500 M 135.977 221.023 C 134.346 222.654, 134.165 223.439, 135.042 225.079 C 136.481 227.767, 138.381 228.402, 140.922 227.042 C 143.575 225.622, 143.661 221.424, 141.066 220.035 C 138.483 218.653, 138.314 218.686, 135.977 221.023 M 195.977 221.023 C 194.346 222.654, 194.165 223.439, 195.042 225.079 C 196.481 227.767, 198.381 228.402, 200.922 227.042 C 203.575 225.622, 203.661 221.424, 201.066 220.035 C 198.483 218.653, 198.314 218.686, 195.977 221.023 M 214 230 C 214 234.667, 213.833 235, 211.500 235 C 209.250 235, 209 235.400, 209 239 C 209 242.600, 209.250 243, 211.500 243 L 214 243 214 254.351 C 214 267.638, 215.045 271.455, 219.282 273.646 C 222.291 275.202, 230.864 275.820, 232.804 274.621 C 233.452 274.221, 233.453 272.681, 232.805 270.131 C 231.987 266.908, 231.392 266.250, 229.296 266.250 C 227.908 266.250, 226.381 265.631, 225.902 264.875 C 225.423 264.119, 225.024 258.887, 225.015 253.250 L 225 243 229 243 C 232.990 243, 233 242.990, 233 239.060 C 233 235.230, 232.896 235.112, 229.250 234.810 C 225.536 234.503, 225.497 234.454, 225.195 229.750 L 224.890 225 219.445 225 L 214 225 214 230 M 166 234.704 C 165.175 235.004, 163.262 236.403, 161.750 237.812 L 159 240.374 159 237.687 C 159 235.368, 158.589 235, 156 235 L 153 235 153 255 L 153 275 156 275 L 159 275 159 260.423 L 159 245.846 161.979 242.867 C 164.568 240.279, 165.569 239.929, 169.628 240.194 C 173.397 240.441, 174.704 241.045, 176.399 243.321 C 178.260 245.820, 178.539 247.790, 178.844 260.571 L 179.188 275 182.182 275 L 185.176 275 184.838 259.250 C 184.460 241.614, 183.448 238.390, 177.393 235.516 C 174.240 234.020, 168.921 233.641, 166 234.704 M 301.338 235.877 C 299.599 236.970, 297.700 238.682, 297.118 239.682 C 296.217 241.231, 296.056 241.020, 296.030 238.250 L 296 235 290.500 235 L 285 235 285 255 L 285 275 290.404 275 L 295.808 275 296.154 260.911 C 296.483 247.515, 296.616 246.727, 298.861 244.911 C 301.724 242.593, 303.839 242.498, 306.777 244.557 C 308.900 246.043, 309 246.765, 309 260.557 L 309 275 314.500 275 L 320 275 320 261.455 C 320 248.268, 320.068 247.841, 322.550 245.359 C 324.528 243.381, 325.707 242.955, 327.800 243.459 C 332.506 244.593, 333 246.277, 333 261.191 L 333 275 338.500 275 L 344 275 344 259.148 C 344 244.303, 343.855 243.081, 341.720 239.912 C 340.466 238.052, 338.328 235.967, 336.970 235.279 C 331.747 232.636, 323.880 234.477, 320.642 239.101 C 319.166 241.208, 319.155 241.205, 316.299 238.008 C 312.554 233.818, 306.083 232.896, 301.338 235.877 M 136 255 L 136 275 139 275 L 142 275 142 255 L 142 235 139 235 L 136 235 136 255 M 196 255 L 196 275 199 275 L 202 275 202 255 L 202 235 199 235 L 196 235 196 255 M 240 250.050 C 240 266.369, 240.647 269.004, 245.615 272.912 C 247.572 274.451, 249.707 275, 253.735 275 C 258.617 275, 259.563 274.637, 262.600 271.600 L 266 268.200 266 271.600 L 266 275 271.500 275 L 277 275 277 255 L 277 235 271.577 235 L 266.155 235 265.827 248.591 C 265.517 261.473, 265.377 262.281, 263.139 264.091 C 259.978 266.647, 255.567 266.525, 253.039 263.811 C 251.199 261.836, 251 260.325, 251 248.311 L 251 235 245.500 235 L 240 235 240 250.050 M 355.168 264.595 C 351.861 266.912, 352.455 272.853, 356.204 274.948 C 358.699 276.342, 359.125 276.298, 361.704 274.381 C 365.234 271.757, 365.808 267.808, 363.061 265.061 C 360.587 262.587, 358.232 262.449, 355.168 264.595" stroke="none" fill="#dbdbdb" fill-rule="evenodd"/></svg>